<svg viewBox="0 0 14.4 12.8" xmlns="http://www.w3.org/2000/svg" xmlns:xlink="http://www.w3.org/1999/xlink" width="14.400002" height="12.799988" fill="none" customFrame="#000000">
	<path id="Vector" d="M14.0516 2.62308C13.8282 2.10976 13.506 1.64461 13.1032 1.25364C12.7 0.86151 12.2247 0.549889 11.703 0.335724C11.1621 0.112766 10.5819 -0.0013566 9.99614 -1.88925e-05C9.17438 -1.88925e-05 8.37262 0.223258 7.67587 0.645004C7.50919 0.745893 7.35083 0.856704 7.20082 0.977439C7.0508 0.856704 6.89245 0.745893 6.72576 0.645004C6.02902 0.223258 5.22726 -1.88925e-05 4.4055 -1.88925e-05C3.81376 -1.88925e-05 3.24036 0.112447 2.69863 0.335724C2.17524 0.550732 1.70352 0.860012 1.29847 1.25364C0.895089 1.64417 0.572855 2.10943 0.350032 2.62308C0.118339 3.15729 -7.62939e-06 3.72458 -7.62939e-06 4.3084C-7.62939e-06 4.85916 0.113339 5.43306 0.338365 6.01689C0.526719 6.50479 0.79675 7.01089 1.14179 7.52194C1.68852 8.3307 2.44027 9.1742 3.37371 10.0293C4.92056 11.4467 6.4524 12.4258 6.51741 12.4655L6.91245 12.7169C7.08747 12.8277 7.3125 12.8277 7.48752 12.7169L7.88256 12.4655C7.94757 12.4241 9.47775 11.4467 11.0263 10.0293C11.9597 9.1742 12.7114 8.3307 13.2582 7.52194C13.6032 7.01089 13.8749 6.50479 14.0616 6.01689C14.2866 5.43306 14.4 4.85916 14.4 4.3084C14.4016 3.72458 14.2833 3.15729 14.0516 2.62308Z" fill="rgb(255,132.813,132.813)" fill-rule="nonzero" />
</svg>
