<svg viewBox="0 0 32 32" xmlns="http://www.w3.org/2000/svg" xmlns:xlink="http://www.w3.org/1999/xlink" width="32.000000" height="32.000000" fill="none" customFrame="#000000">
	<g id="Group 91">
		<rect id="Rectangle 22" width="32.000000" height="32.000000" x="0.000000" y="0.000000" rx="8.000000" fill="rgb(255,255,255)" />
		<rect id="Rectangle 22" width="31.000000" height="31.000000" x="0.500000" y="0.500000" rx="7.500000" stroke="rgb(218.875,218.875,218.875)" stroke-width="1" />
		<path id="Vector" d="M9.99857 4.46453L6.53544 4.46453L6.53544 1.00152C6.53544 -0.333841 4.46443 -0.333841 4.46443 1.00152L4.46443 4.46453L1.0013 4.46453C-0.333767 4.46453 -0.333767 6.53547 1.0013 6.53547L4.46443 6.53547L4.46443 9.99848C4.46443 11.3338 6.53544 11.3338 6.53544 9.99848L6.53544 6.53547L9.99857 6.53547C11.3338 6.53547 11.3338 4.46453 9.99857 4.46453Z" fill="rgb(180.625,180.625,180.625)" fill-rule="nonzero" transform="matrix(0.707107,0.707107,-0.707107,0.707107,16.1667,8.38858)" />
	</g>
</svg>
