<svg viewBox="0 0 14.4 12.8" xmlns="http://www.w3.org/2000/svg" xmlns:xlink="http://www.w3.org/1999/xlink" width="14.399994" height="12.799988" fill="none" customFrame="#000000">
	<defs>
		<clipPath id="clipPath_0">
			<rect width="16.000000" height="16.000000" x="-0.533325" y="-1.599976" fill="rgb(255,255,255)" />
		</clipPath>
	</defs>
	<rect id="Vector" width="14.400000" height="12.799999" x="0.000000" y="0.000000" fill="rgb(255,255,255)" fill-opacity="0" />
	<g id="8666647_heart_icon 1" clip-path="url(#clipPath_0)" customFrame="url(#clipPath_0)">
		<rect id="8666647_heart_icon 1" width="16.000000" height="16.000000" x="-0.533325" y="-1.599976" fill="rgb(255,255,255)" fill-opacity="0" />
		<path id="Vector" d="M12.1378 0.679297C11.6928 0.494923 11.2159 0.400024 10.7342 0.400024C10.2525 0.400024 9.7756 0.494923 9.33063 0.679297C8.88566 0.863672 8.48137 1.13391 8.14087 1.47457L7.4342 2.18124L6.72753 1.47457C6.03974 0.78678 5.10689 0.400381 4.1342 0.400381C3.16151 0.400381 2.22866 0.78678 1.54087 1.47457C0.853074 2.16237 0.466675 3.09522 0.466675 4.06791C0.466675 5.0406 0.853074 5.97345 1.54087 6.66124L2.24753 7.36791L7.4342 12.5546L12.6209 7.36791L13.3275 6.66124C13.6682 6.32074 13.9384 5.91645 14.1228 5.47148C14.3072 5.02651 14.4021 4.54957 14.4021 4.06791C14.4021 3.58625 14.3072 3.10931 14.1228 2.66434C13.9384 2.21937 13.6682 1.81508 13.3275 1.47457C12.987 1.13391 12.5827 0.863672 12.1378 0.679297Z" fill-rule="nonzero" stroke="rgb(233.75,233.75,233.75)" stroke-linecap="round" stroke-linejoin="round" stroke-width="1.20000005" />
	</g>
</svg>
